<?xml version="1.0" encoding="UTF-8"?>
<svg version="1.1"  width="292.21" height="292.21" viewBox="0 0 292.21 292.21" xml:space="preserve" xmlns="http://www.w3.org/2000/svg">
  <title>Logo Eintracht Frankfurt (seit 1998)</title>
  <g stroke-width=".1">
    <circle cx="146.11" cy="146.11" r="146.11" fill="#e1020c"/>
    <circle cx="146.11" cy="146.11" r="141.34" fill="#fff"/>
    <circle cx="146.11" cy="146.11" r="133.86" fill="#e1020c"/>
    <circle cx="146.11" cy="146.11" r="112.45" fill="#fff"/>
    <path d="m155.52 50.79 13.02 6.54-12.68 7.32-9.32-4.39-9.27 4.39-12.69-7.32 13.03-6.54 8.93 4.19z" fill="#e1020c"/>
    <path d="m159.6 72.64 13.28 7.85-12.97 7.12-13.28-7.85-13.28 7.85-12.97-7.12 13.28-7.85 12.97 7.84z" fill="#e1020c"/>
    <path d="m160.82 96.42 12.06 6.91-11.76 6.75-14.59-8.4-14.59 8.4-11.76-6.75 12.06-6.91 14.29 8.24z" fill="#e1020c"/>
    <path d="m176.11 116.72 12.08 6.93-11.79 6.77-29.77-17.12-29.76 17.12-11.79-6.77 12.08-6.93 29.47 16.96z" fill="#e1020c"/>
    <path d="m195.31 139.63 12.08 6.93-11.79 6.77-48.97-28.15-48.96 28.15-11.8-6.77 12.09-6.93 48.67 28z" fill="#e1020c"/>
    <path d="m214.51 162.53 12.08 6.94-11.79 6.76-68.17-39.18-68.16 39.18-11.79-6.76 12.08-6.94 67.87 39.03z" fill="#e1020c"/>
    <path d="m233.71 185.44 12.08 6.94-11.79 6.76-87.37-50.22-87.36 50.22-11.79-6.76 12.08-6.94 87.07 50.07z" fill="#e1020c"/>
    <path d="m146.63 52.4 9.79 5.56-9.79 5.56-9.78-5.56z" fill="#fff"/>
    <path d="m146.63 74.33 11.78 6.79-11.78 6.79-11.77-6.79z" fill="#fff"/>
    <path d="m146.63 99.13 12.79 7.37-12.79 7.37-12.78-7.37z" fill="#fff"/>
    <path d="m146.63 116.88 29.77 17.13-9.99 5.75-19.78-11.38-19.77 11.38-9.99-5.75z" fill="#fff"/>
    <path d="m146.63 139.76 48.97 28.16-9.99 5.75-38.98-22.41-38.97 22.41-9.99-5.75z" fill="#fff"/>
    <path d="m146.63 162.65 68.17 39.19-9.99 5.75-58.18-33.44-58.17 33.44-9.99-5.75z" fill="#fff"/>
    <path d="m146.63 185.54 87.37 50.23-9.99 5.74-77.38-44.47-77.37 44.47-9.99-5.74z" fill="#fff"/>
    <path d="m105.61 72.1 12.85 7.6-11.93 7.1-12.84-7.6zm-22.8 13.57 12.84 7.6-11.92 7.1-12.85-7.6zm-22.81 13.58 12.85 7.6-11.93 7.09-12.84-7.59zm165.63-27.15-12.85 7.6 11.93 7.1 12.84-7.6zm22.8 13.57-12.84 7.6 11.92 7.1 12.85-7.6zm22.81 13.58-12.85 7.6 11.93 7.09 12.84-7.59z" fill="#e1020c"/>
    <path d="m94.26 91.18 13.27 7.86-11.93 7.09-13.27-7.85zm-22.81 13.58 13.28 7.85-11.93 7.1-13.27-7.86zm-22.8 13.57 13.27 7.86-11.92 7.1-13.28-7.86zm188.36-27.15-13.27 7.86 11.93 7.09 13.27-7.85zm22.81 13.58-13.28 7.85 11.93 7.1 13.27-7.86zm22.8 13.57-13.27 7.86 11.92 7.1 13.28-7.86z" fill="#e1020c"/>
    <path d="m82.91 110.27 13.27 7.85-11.93 7.1-13.27-7.86zm-22.81 13.57 13.28 7.86-11.93 7.1-13.27-7.86zm-22.8 13.58 13.27 7.85-11.92 7.1-13.28-7.86zm211.06-27.15-13.27 7.85 11.93 7.1 13.27-7.86zm22.81 13.57-13.28 7.86 11.93 7.1 13.27-7.86zm22.8 13.58-13.27 7.85 11.92 7.1 13.28-7.86z" fill="#e1020c"/>
    <path d="m71.55 129.35 13.28 7.86-11.93 7.1-13.27-7.86zm-22.8 13.58 13.27 7.85-11.92 7.1-13.28-7.86zm-22.81 13.57 13.28 7.86-11.93 7.1-13.27-7.86zm233.77-27.15-13.28 7.86 11.93 7.1 13.27-7.86zm22.8 13.58-13.27 7.85 11.92 7.1 13.28-7.86zm22.81 13.57-13.28 7.86 11.93 7.1 13.27-7.86z" fill="#e1020c"/>
    <path d="m60.2 148.44 13.27 7.85-11.93 7.1-13.27-7.86zm-22.81 13.57 13.28 7.86-11.93 7.1-13.27-7.86zm-22.8 13.58 13.27 7.85-11.92 7.1-13.28-7.86zm256.47-27.15-13.27 7.85 11.93 7.1 13.27-7.86zm22.81 13.57-13.28 7.86 11.93 7.1 13.27-7.86zm22.8 13.58-13.27 7.85 11.92 7.1 13.28-7.86z" fill="#e1020c"/>
    <path d="m48.84 167.52 13.28 7.86-11.93 7.1-13.27-7.86zm-22.8 13.58 13.27 7.85-11.92 7.1-13.28-7.86zm279.18-13.58-13.28 7.86 11.93 7.1 13.27-7.86zm22.8 13.58-13.27 7.85 11.92 7.1 13.28-7.86z" fill="#e1020c"/>
    <path d="m37.49 186.61 13.27 7.85-11.93 7.1-13.27-7.86zm301.88 0-13.27 7.85 11.93 7.1 13.27-7.86z" fill="#e1020c"/>
  </g>
</svg>
